<?xml version="1.0" encoding="UTF-8"?>
<svg id="_レイヤー_1" data-name="レイヤー 1" xmlns="http://www.w3.org/2000/svg" viewBox="0 0 100 100">
  <path d="M19.302,20.781c10.348-.244,20.696-.487,31.044-.731,5.133-.121,10.265-.242,15.398-.363,4.903-.115,10.028-.624,14.85,.483,3.132,.719,4.469-4.1,1.329-4.821-5.062-1.162-10.288-.8-15.434-.679-5.215,.123-10.431,.246-15.646,.368-10.514,.248-21.027,.495-31.541,.743-3.212,.076-3.224,5.076,0,5h0Z"/>
  <path d="M38.045,41.155c8.404-.891,16.92-.73,25.267,.62,1.331,.215,2.69-.345,3.075-1.746,.328-1.192-.406-2.858-1.746-3.075-8.807-1.424-17.72-1.74-26.596-.798-1.343,.142-2.5,1.047-2.5,2.5,0,1.241,1.149,2.643,2.5,2.5h0Z"/>
  <path d="M18.741,65.358c20.81-.023,41.62-.045,62.43-.068,3.217-.003,3.223-5.004,0-5-20.81,.023-41.62,.045-62.43,.068-3.217,.003-3.223,5.004,0,5h0Z"/>
  <path d="M37.534,88.61c9.207,.222,18.414,.444,27.621,.666,3.219,.078,3.217-4.922,0-5-9.207-.222-18.414-.444-27.621-.666-3.219-.078-3.217,4.922,0,5h0Z"/>
</svg>