<?xml version="1.0" encoding="UTF-8"?>
<svg id="_レイヤー_1" data-name="レイヤー 1" xmlns="http://www.w3.org/2000/svg" viewBox="0 0 100 100">
  <path d="M18.539,20.257c17.561-.207,35.123-.212,52.684-.008,4.97,.058,9.94,.133,14.909,.223,3.219,.058,3.219-4.941,0-5-17.559-.319-35.121-.435-52.683-.343-4.97,.026-9.94,.069-14.91,.128-3.215,.038-3.224,5.038,0,5h0Z"/>
  <path d="M20.171,40.958c8.602,.902,17.247,1.37,25.897,1.378,8.57,.008,17.131-.638,25.702-.499,4.755,.077,9.501,.419,14.175,1.327,1.324,.257,2.698-.374,3.075-1.746,.337-1.225-.414-2.817-1.746-3.075-8.627-1.675-17.398-1.644-26.145-1.361-8.698,.282-17.371,.494-26.071,.1-4.972-.225-9.936-.605-14.886-1.124-1.345-.141-2.5,1.25-2.5,2.5,0,1.469,1.151,2.359,2.5,2.5h0Z"/>
  <path d="M18.532,66.812c17.563,.039,35.127,.079,52.69,.118,4.971,.011,9.942,.022,14.912,.033,3.218,.007,3.222-4.993,0-5-17.563-.039-35.127-.079-52.69-.118-4.971-.011-9.942-.022-14.912-.033-3.218-.007-3.222,4.993,0,5h0Z"/>
  <path d="M16.386,87.649c18.547-.083,37.094-.165,55.641-.248,5.24-.023,10.48-.047,15.719-.07,3.217-.014,3.223-5.014,0-5-18.547,.083-37.094,.165-55.641,.248-5.24,.023-10.48,.047-15.719,.07-3.217,.014-3.223,5.014,0,5h0Z"/>
</svg>