<?xml version="1.0" encoding="UTF-8"?>
<svg id="_レイヤー_1" data-name="レイヤー 1" xmlns="http://www.w3.org/2000/svg" viewBox="0 0 100 100">
  <path d="M21.942,19.188c20.324,1.794,40.743,2.39,61.137,1.785,3.21-.095,3.224-5.096,0-5-20.394,.605-40.813,.008-61.137-1.785-1.347-.119-2.5,1.234-2.5,2.5,0,1.451,1.149,2.381,2.5,2.5h0Z"/>
  <path d="M23.482,41.249c9.651-.757,19.33-1.063,29.009-.919,3.219,.048,3.22-4.952,0-5-9.679-.144-19.358,.163-29.009,.919-1.346,.106-2.5,1.073-2.5,2.5,0,1.271,1.146,2.606,2.5,2.5h0Z"/>
  <path d="M22.842,66.023c17.05-1.103,33.971,2.433,51.016,1.848,4.918-.169,9.829-.709,14.646-1.722,1.322-.278,2.088-1.831,1.746-3.075-.377-1.37-1.75-2.025-3.075-1.746-16.467,3.462-33.343,.445-49.921-.344-4.802-.229-9.612-.271-14.412,.039-1.348,.087-2.5,1.087-2.5,2.5,0,1.286,1.146,2.588,2.5,2.5h0Z"/>
  <path d="M24.529,89.614c9.65-.78,19.339-.905,29.007-.374,3.215,.177,3.205-4.824,0-5-9.667-.531-19.356-.406-29.007,.374-1.346,.109-2.5,1.071-2.5,2.5,0,1.268,1.147,2.609,2.5,2.5h0Z"/>
</svg>