<?xml version="1.0" encoding="UTF-8"?>
<svg id="_レイヤー_1" data-name="レイヤー 1" xmlns="http://www.w3.org/2000/svg" viewBox="0 0 100 100">
  <path d="M14.518,85.496c8.914-14.878,17.828-29.757,26.742-44.635,2.516-4.2,5.033-8.4,7.549-12.6,1.658-2.767-2.664-5.284-4.317-2.524-8.914,14.878-17.828,29.757-26.742,44.635-2.516,4.2-5.033,8.4-7.549,12.6-1.658,2.767,2.664,5.284,4.317,2.524h0Z"/>
  <path d="M43.729,31.026c2.486-1.421,4.972-2.843,7.457-4.264l-3.672-2.823c-.629,3.312-1.258,6.625-1.888,9.937-.243,1.281,.357,2.759,1.746,3.075,1.232,.281,2.814-.372,3.075-1.746,.629-3.312,1.258-6.625,1.888-9.937,.192-1.011-.052-1.976-.896-2.628-.793-.613-1.896-.699-2.777-.195-2.486,1.421-4.972,2.843-7.457,4.264-1.136,.649-1.624,2.293-.897,3.42,.739,1.147,2.205,1.592,3.42,.897h0Z"/>
  <path d="M42.84,31.792c.178-.292,.361-.58,.558-.861,.097-.138,.301-.415,.084-.135,.093-.12,.19-.238,.288-.354,.464-.553,.971-1.07,1.513-1.547,.143-.126,.291-.244,.435-.368-.192,.164-.12,.086,.036-.027,.227-.164,.521-.298,.732-.479,.194-.167-.46,.119-.038,.011,.111-.028,.224-.061,.333-.095,.517-.157-.375,.027-.092,.021,.262-.005-.567-.187-.145-.011-.351-.147-.75-.373-.943-.714l-.114-.258c-.037-.28-.056-.326-.056-.136-.108,.325-.071,.785-.105,1.124-.08,.803-.161,1.605-.241,2.408-.17,1.694-.339,3.389-.509,5.083l3.165-2.411c-.978-.196-1.943-.446-2.889-.765-.436-.147-.866-.31-1.294-.479,.464,.183-.154-.067-.249-.11-.245-.111-.487-.226-.728-.344-.859-.425-1.692-.902-2.492-1.431-.384-.254-.759-.52-1.128-.795,.387,.288-.142-.114-.218-.176-.238-.194-.47-.394-.701-.596v3.536c.836-.886,1.715-1.731,2.641-2.522,.232-.198,.466-.392,.703-.584,.118-.096,.238-.191,.357-.285-.205,.157-.193,.148,.037-.027,.49-.362,.983-.719,1.489-1.059,1.012-.678,2.06-1.302,3.14-1.865,.54-.282,1.087-.549,1.642-.801,.082-.037,.936-.401,.451-.202,.282-.116,.565-.227,.849-.337l-3.165-2.411c.084,4.389-.378,7.887-1.606,12.104-.365,1.255,.443,2.778,1.746,3.075,1.337,.305,2.684-.402,3.075-1.746,1.265-4.348,1.871-8.906,1.784-13.433-.029-1.486-1.596-3.013-3.165-2.411-5.114,1.965-9.748,4.973-13.516,8.966-.881,.934-1.04,2.622,0,3.536,3.387,2.974,7.473,5.095,11.904,5.983,1.709,.343,2.996-.724,3.165-2.411,.21-2.096,.42-4.192,.63-6.287,.11-1.095,.329-2.218,.135-3.313-.228-1.291-1.217-2.349-2.467-2.729-2.063-.627-3.959,.498-5.512,1.722-1.538,1.212-2.823,2.749-3.838,4.419-.68,1.119-.283,2.797,.897,3.42,1.215,.642,2.695,.297,3.42-.897h0Z"/>
  <path d="M66.754,35.504c-3.484,7.674-6.972,15.352-10.893,22.815-1.972,3.754-4.053,7.453-6.293,11.055-1.119,1.799-2.277,3.574-3.48,5.319-1.128,1.636-3.149,3.56-3.144,5.669,.007,3.013,3.272,3.664,5.535,4.528,2.439,.932,4.879,1.864,7.318,2.796,1.262,.482,2.742-.533,3.075-1.746,.387-1.408-.48-2.592-1.746-3.075-1.753-.67-3.507-1.34-5.26-2.01-.839-.32-1.677-.641-2.516-.961-.457-.175-.915-.35-1.372-.524l-.457-.175c-.547-.21-.61-.233-.187-.069l.643,1.103c-.132,.579-.071,.624,.184,.134,.18-.244,.359-.489,.537-.734,.267-.368,.532-.737,.795-1.108,.613-.865,1.215-1.738,1.805-2.618,1.096-1.634,2.155-3.292,3.181-4.971,2.134-3.49,4.123-7.067,6.014-10.693,3.792-7.273,7.187-14.744,10.576-22.21,.558-1.229,.352-2.69-.897-3.42-1.073-.627-2.86-.338-3.42,.897h0Z"/>
  <path d="M68.621,30.971c-1.327-.391-2.167-1.261-2.743-2.496v2.524c4.636-6.736,11.554-11.768,19.358-14.182l-3.165-2.411c-.262,9.03-.119,18.065,.427,27.081l3.762-2.159c-1.757-.88-3.515-1.76-5.272-2.641-1.116-.559-2.827-.392-3.42,.897-7.078,15.375-14.157,30.751-21.235,46.126-.564,1.226-.348,2.693,.897,3.42,1.078,.63,2.853,.335,3.42-.897,7.078-15.375,14.157-30.751,21.235-46.126l-3.42,.897c1.757,.88,3.515,1.76,5.272,2.641,1.58,.791,3.884-.143,3.762-2.159-.546-9.017-.689-18.052-.427-27.081,.046-1.591-1.639-2.882-3.165-2.411-6.011,1.859-11.539,5.031-16.172,9.291-2.225,2.045-4.49,4.431-6.063,7.026-1.958,3.231,3.011,6.711,5.619,7.48,3.093,.912,4.414-3.912,1.329-4.821h0Z"/>
  <path d="M41.221,31.452c-9.359,14.33-18.358,28.894-26.975,43.683-2.439,4.185-4.846,8.389-7.225,12.609l4.569,1.926c1.857-7.634,5.721-14.472,9.671-21.191,4.309-7.328,8.634-14.645,12.952-21.968,2.486-4.216,4.972-8.432,7.457-12.648,1.638-2.778-2.682-5.297-4.317-2.524-4.424,7.503-8.848,15.006-13.272,22.509-4.218,7.154-8.72,14.217-12.43,21.653-2.048,4.104-3.797,8.375-4.883,12.838-.656,2.698,3.142,4.458,4.569,1.926,8.405-14.91,17.184-29.607,26.339-44.069,2.591-4.093,5.212-8.166,7.861-12.222,1.765-2.702-2.563-5.21-4.317-2.524h0Z"/>
  <path d="M40.342,33.894c-1.702-1.831-3.405-3.662-5.107-5.493v3.536c4.978-4.952,10.613-9.11,16.8-12.429l-3.762-2.159c-.168,3.897-.467,7.787-.913,11.663-.21,1.825-.455,3.645-.736,5.461-.124,.801-.221,1.618-.418,2.406,.021-.083-.183,.817-.14,.528-.171,.261-.199,.326-.084,.195,.163-.079,.104-.047-.176,.097-2.846,1.503-.323,5.82,2.524,4.317,1.667-.881,2.482-2.618,2.823-4.398,.432-2.263,.708-4.569,.996-6.854,.563-4.455,.932-8.93,1.125-13.416,.085-1.969-2.166-3.015-3.762-2.159-6.538,3.508-12.552,7.979-17.812,13.211-.983,.977-.919,2.547,0,3.536l5.107,5.493c2.196,2.362,5.725-1.18,3.536-3.536h0Z"/>
  <path d="M42.107,36.929l1.067,2.43,1.494-3.672c-.054,.012-.107,.022-.161,.029l.665-.089c-.141,.016-.281,.015-.423-.002l.665,.089c-.163-.023-.319-.066-.472-.128l.597,.252c-.162-.069-.312-.158-.452-.265l.506,.391c-.12-.096-.228-.203-.323-.323l.391,.506c-.093-.122-.169-.252-.229-.393l.252,.597c-.029-.071-.052-.143-.072-.218-.077-.325-.227-.609-.447-.85-.176-.272-.41-.487-.701-.644-.287-.183-.597-.282-.929-.297-.332-.074-.665-.06-.997,.045l-.597,.252c-.376,.222-.675,.521-.897,.897l-.252,.597c-.119,.443-.119,.886,0,1.329,.083,.319,.225,.625,.371,.919,.099,.199,.242,.367,.378,.542,.14,.181,.27,.363,.443,.514,.241,.21,.496,.417,.771,.585,.276,.168,.593,.283,.89,.399,.112,.044,.227,.078,.345,.1,.322,.06,.658,.121,.989,.119,.065,0,.13-.005,.195-.013,.274-.03,.556-.058,.826-.118,.424-.119,.791-.333,1.103-.643,.244-.226,.416-.495,.517-.805,.157-.298,.228-.619,.215-.963-.001-.451-.115-.872-.341-1.262l-1.067-2.43c-.157-.291-.372-.525-.644-.701-.241-.221-.525-.37-.85-.447-.332-.104-.665-.119-.997-.045-.333,.015-.643,.114-.929,.297l-.506,.391c-.31,.312-.524,.68-.643,1.103l-.089,.665c.001,.451,.115,.872,.341,1.262h0Z"/>
</svg>