<?xml version="1.0" encoding="UTF-8"?>
<svg id="_レイヤー_1" data-name="レイヤー 1" xmlns="http://www.w3.org/2000/svg" viewBox="0 0 100 100">
  <path d="M12.066,27.214c-.51,9.701-1.019,19.403-1.529,29.104-.135,2.573,3.865,2.565,4,0,.51-9.701,1.019-19.403,1.529-29.104,.135-2.573-3.865-2.565-4,0h0Z"/>
  <path d="M18.115,27.885c17.956-1.94,36.155-1.572,54.004,1.208l-1.468-1.929c.028,8.865-.228,17.727-.766,26.575-.156,2.571,3.844,2.562,4,0,.538-8.848,.794-17.71,.766-26.575-.002-.794-.613-1.795-1.468-1.929-18.22-2.838-36.731-3.331-55.067-1.351-1.074,.116-2,.836-2,2,0,.991,.919,2.117,2,2h0Z"/>
  <path d="M18.362,36.482c-.359,6.887-.718,13.775-1.077,20.662-.054,1.031,.961,2.067,2,2,9.352-.602,18.706-1.183,28.053-1.861,4.622-.335,9.242-.696,13.858-1.1,2.028-.178,4.894,.079,6.247-1.756,1.254-1.702,.529-3.866,.231-5.756-.806-5.113-.747-10.414,.093-15.518,.224-1.359-.881-3.03-2.46-2.46-3.441,1.241-7.025,1.204-10.625,.896-3.853-.33-7.678-.81-11.546-.954-7.865-.292-15.738,.318-23.482,1.705-1.064,.191-1.664,1.487-1.397,2.46,.308,1.121,1.393,1.588,2.46,1.397,7.711-1.381,15.564-1.884,23.389-1.522,7.31,.338,15.15,2.442,22.265-.125l-2.46-2.46c-.697,4.234-.966,8.514-.659,12.798,.151,2.105,.435,4.198,.811,6.274,.055,.306,.119,.612,.132,.923-.008-.199,.435-.129,.098-.19-.167-.03-.452,.051-.623,.068-1.152,.116-2.308,.207-3.462,.307-8.739,.753-17.49,1.357-26.243,1.928-4.893,.32-9.786,.632-14.679,.947l2,2c.359-6.887,.718-13.775,1.077-20.662,.134-2.573-3.866-2.565-4,0h0Z"/>
  <path d="M10.133,56.954c-1.258,9.851-1.647,19.789-1.162,29.708,.057,1.167,.876,1.881,2,2,13.688,1.452,27.378,2.88,41.068,4.314,4.972,.521,10.746,1.67,15.385-.855,5.689-3.097,4.937-10.477,5.173-15.988,.33-7.692,.66-15.383,.99-23.075,.11-2.574-3.89-2.569-4,0-.277,6.464-.555,12.928-.832,19.393-.136,3.165-.253,6.332-.408,9.496-.114,2.32-.319,4.952-2.398,6.394-1.687,1.171-3.917,1.328-5.905,1.317-2.675-.014-5.348-.404-8.005-.682-6.417-.672-12.833-1.343-19.25-2.016-7.273-.762-14.546-1.526-21.818-2.298l2,2c-.485-9.919-.096-19.857,1.162-29.708,.137-1.073-1.017-2-2-2-1.195,0-1.863,.924-2,2h0Z"/>
  <path d="M17.467,66.215l-.054,7.303-.025,3.408c-.008,1.137-.093,2.351,.473,3.384,1.001,1.825,3.415,2.388,5.26,2.986,2.16,.7,4.373,1.227,6.607,1.631,9.027,1.634,18.348,1.667,27.488,2.117,1.99,.098,3.96-.053,5.247-1.778,1.15-1.542,1.176-3.525,1.251-5.368,.191-4.63,.629-9.325,.554-13.958-.033-2.012-.695-3.989-2.559-5-1.802-.978-4.166-.958-6.156-1.172-4.808-.516-9.637-.841-14.471-.974-5.408-.148-10.822-.057-16.221,.276-2.167,.134-4.843,.177-6.175,2.213-1.112,1.699-.801,4.27,1.119,5.242,2.292,1.16,4.319-2.29,2.019-3.454-.048-.024,.365,.603,.179,.5-.133-.074,.394-.185,.176-.165,.644-.061,1.281-.246,1.945-.29,1.963-.132,3.928-.226,5.894-.292,3.932-.131,7.868-.134,11.801-.01s7.861,.375,11.777,.753c1.786,.172,3.657,.249,5.413,.632,1.445,.316,1.286,1.324,1.243,2.637-.125,3.87-.319,7.74-.478,11.609-.038,.917-.056,1.837-.116,2.752-.028,.429-.024,1.232-.323,1.58-.258,.3-.477,.298-.898,.312-1.039,.036-2.102-.091-3.14-.143-7.404-.371-14.912-.446-22.258-1.511-1.95-.283-3.889-.648-5.801-1.126-1.027-.256-2.046-.545-3.054-.872-.682-.221-2.246-.476-2.73-1.013-.228-.253-.066-1.445-.062-1.986l.025-3.408,.05-6.816c.019-2.574-3.981-2.577-4,0h0Z"/>
  <path d="M36.078,77.466c1.322,.221,2.644,.441,3.965,.662,.266,.083,.532,.095,.798,.036,.266-.012,.514-.091,.744-.237,.415-.243,.811-.718,.919-1.195,.117-.512,.091-1.087-.202-1.541-.265-.412-.691-.835-1.195-.919l-3.965-.662c-.266-.083-.532-.095-.798-.036-.266,.012-.514,.091-.744,.237-.415,.243-.811,.718-.919,1.195-.117,.512-.091,1.087,.202,1.541,.265,.412,.691,.835,1.195,.919h0Z"/>
  <path d="M39.382,45.081l3.965,.662c.266,.083,.532,.095,.798,.036,.266-.012,.514-.091,.744-.237,.415-.243,.811-.718,.919-1.195,.117-.512,.091-1.087-.202-1.541-.265-.412-.691-.835-1.195-.919l-3.965-.662c-.266-.083-.532-.095-.798-.036-.266,.012-.514,.091-.744,.237-.415,.243-.811,.718-.919,1.195-.117,.512-.091,1.087,.202,1.541,.265,.412,.691,.835,1.195,.919h0Z"/>
  <path d="M19.684,24.145c9.117-5.362,18.132-10.895,27.04-16.597,2.162-1.384,.158-4.847-2.019-3.454-8.908,5.702-17.923,11.235-27.04,16.597-2.218,1.304-.207,4.763,2.019,3.454h0Z"/>
  <path d="M74.599,26.244c5.7-4.266,10.454-9.66,13.84-15.935,.513-.95,.237-2.178-.718-2.736-.91-.532-2.222-.236-2.736,.718-3.046,5.644-7.271,10.658-12.405,14.5-.863,.646-1.307,1.729-.718,2.736,.498,.851,1.867,1.369,2.736,.718h0Z"/>
  <path d="M75.181,84.271c5.262-5.751,10.524-11.502,15.786-17.253,.729-.797,.788-2.041,0-2.828-.739-.739-2.097-.8-2.828,0-5.262,5.751-10.524,11.502-15.786,17.253-.729,.797-.788,2.041,0,2.828,.739,.739,2.097,.8,2.828,0h0Z"/>
  <path d="M17.712,88.994l-.843,1.686c-.367,.734-.359,1.554,.156,2.221,.508,.658,1.298,.886,2.102,.717,.316-.067,.634-.121,.953-.173,.409-.067-.43,.044,.017,0,.138-.014,.275-.029,.413-.041,.597-.051,1.198-.067,1.797-.049,.277,.009,.553,.024,.829,.048,.161,.014,.321,.03,.482,.048,.532,.062-.329-.062,.085,.012,.592,.107,1.176,.222,1.756,.382,.965,.266,2.276-.328,2.46-1.397,.365-2.122,.1-4.141-.808-6.093-.442-.952-1.887-1.265-2.736-.718-.98,.632-1.191,1.719-.718,2.736,.036,.077,.066,.162,.107,.236-.05-.09-.142-.367-.057-.117,.056,.164,.115,.326,.164,.492s.092,.333,.129,.502c.019,.084,.036,.169,.052,.254,.014,.074,.071,.458,.024,.118-.044-.317-.005-.01,.001,.056,.008,.086,.014,.172,.019,.259,.01,.173,.013,.345,.011,.518s-.01,.345-.025,.518c-.006,.067-.047,.371,.001,.056,.054-.351-.015,.079-.022,.119l2.46-1.397c-2.766-.761-5.656-.816-8.458-.227l2.259,2.938,.843-1.686c.467-.935,.28-2.209-.718-2.736-.906-.479-2.237-.282-2.736,.718h0Z"/>
  <path d="M51.105,90.606c-.816,.881-1.345,2.084-1.204,3.304,.128,1.111,.814,1.95,2,2,3.293,.137,6.59,.113,9.88-.072,1.043-.059,2.05-.878,2-2-.046-1.033-.881-2.063-2-2-3.291,.186-6.587,.21-9.88,.072l2,2c-.002-.017-.026-.443-.02-.44,.002,0-.03,.48,.017,.025,.029-.283-.084,.468-.004,.003l.076-.126c-.171,.205-.183,.225-.036,.062,.711-.768,.817-2.079,0-2.828-.773-.71-2.069-.82-2.828,0h0Z"/>
  <path d="M43.9,9.899c15.413,.816,30.826,1.633,46.239,2.449,2.572,.136,2.565-3.864,0-4-15.413-.816-30.826-1.633-46.239-2.449-2.572-.136-2.565,3.864,0,4h0Z"/>
  <path d="M86.011,17.875c2.141,12.923,3.334,25.986,3.613,39.081,.055,2.57,4.055,2.579,4,0-.287-13.454-1.556-26.869-3.756-40.144-.177-1.066-1.497-1.662-2.46-1.397-1.132,.311-1.574,1.391-1.397,2.46h0Z"/>
</svg>