<?xml version="1.0" encoding="UTF-8"?>
<svg id="_レイヤー_1" data-name="レイヤー 1" xmlns="http://www.w3.org/2000/svg" viewBox="0 0 100 100">
  <path d="M10.687,18.996c-2.078,.035-3.901,1.218-4.858,3.063-1.002,1.932-.893,4.143-.863,6.254,.063,4.456,.173,8.911,.331,13.365,.316,8.94,.715,17.912,1.522,26.823,.182,2.006,.558,4.09,2.054,5.571,1.401,1.388,3.252,1.913,5.156,2.14,4.168,.495,8.548,.136,12.725-.113,8.735-.522,17.451-1.607,26.215-1.459,2.398,.04,4.796,.174,7.18,.437,.678,.075,1.604,.022,2.069,.554,.582,.667,.921,1.711,1.369,2.473,2.259,3.839,5.201,7.287,8.629,10.128,1.262,1.046,3.001,.947,3.926-.506,1.387-2.178,2.464-4.584,3.119-7.084,.275-1.048,.345-2.162,.657-3.195,.194-.642,.395-.699,.989-.776,2.27-.297,4.48,.759,6.809,.322,2.454-.46,4.131-2.311,4.926-4.59,.757-2.17,.718-4.635,.881-6.902,.201-2.799,.404-5.597,.6-8.397,.396-5.655,.751-11.316,.88-16.985,.126-5.574,.033-11.16-.462-16.715-.232-2.601-.576-5.175-3.05-6.619-2.023-1.18-4.455-1.057-6.708-.984-11.457,.37-22.914,.741-34.371,1.111-12.868,.416-25.737,.832-38.605,1.248-3.209,.104-3.224,5.104,0,5,21.835-.706,43.67-1.411,65.505-2.117,2.74-.089,5.479-.18,8.219-.266,1.132-.035,3.495-.443,3.821,1.02,.533,2.388,.468,5.06,.571,7.499,.111,2.622,.146,5.246,.126,7.87-.042,5.422-.321,10.839-.674,16.249-.339,5.192-.579,10.422-1.109,15.598-.17,1.657-.474,3.185-2.382,3.135-2.411-.063-4.676-.946-7.07-.092-2.716,.968-3.535,3.166-4.038,5.785-.51,2.654-1.499,5.086-2.949,7.363l3.926-.506c-2.73-2.262-5.142-4.87-7.067-7.852-.974-1.51-1.667-3.277-2.836-4.645-1.295-1.517-3.11-1.811-4.983-2.039-8.132-.99-16.343-.419-24.478,.225-4.092,.324-8.183,.669-12.284,.853-2.086,.093-4.174,.145-6.262,.131-1.512-.011-3.306,.159-4.749-.411-1.175-.464-1.214-1.714-1.305-2.834-.174-2.138-.321-4.28-.465-6.42-.282-4.199-.523-8.401-.721-12.606-.222-4.699-.391-9.4-.507-14.102-.057-2.31-.102-4.62-.134-6.931-.008-.56-.376-4.05,.725-4.069,3.214-.055,3.224-5.055,0-5h0Z"/>
  <path d="M30.309,38.519c12.813,.52,25.639,.938,38.375-.892,1.338-.192,2.072-1.891,1.746-3.075-.395-1.437-1.733-1.939-3.075-1.746-12.257,1.761-24.719,1.214-37.046,.713-3.218-.131-3.212,4.87,0,5h0Z"/>
  <path d="M32.133,48.775c12.02-.456,24.051-.507,36.074-.154,3.219,.095,3.216-4.906,0-5-12.023-.353-24.054-.302-36.074,.154-3.207,.122-3.223,5.122,0,5h0Z"/>
  <path d="M31.454,58.989c13.164-.102,26.328-.205,39.491-.307,3.216-.025,3.223-5.025,0-5-13.164,.102-26.328,.205-39.491,.307-3.216,.025-3.223,5.025,0,5h0Z"/>
</svg>