<?xml version="1.0" encoding="UTF-8"?>
<svg id="_レイヤー_1" data-name="レイヤー 1" xmlns="http://www.w3.org/2000/svg" viewBox="0 0 100 100">
  <path d="M61.488,78.308c-8.459,.659-16.981,.149-25.275-1.661-6.977-1.523-14.478-3.718-19.557-9.038-4.377-4.585-5.934-11.221-5.168-17.404,.793-6.402,4.258-12.015,9.079-16.194,11.738-10.174,28.49-9.913,42.602-5.718,6.626,1.97,13.256,4.729,17.399,10.541,3.483,4.886,5.206,10.852,4.811,16.843-.806,12.217-12.041,21.659-24.036,21.821-1.466,.02-2.921-.086-4.362-.357-1.326-.249-2.697,.369-3.075,1.746-.335,1.219,.412,2.824,1.746,3.075,14.189,2.671,29.476-6.016,33.645-20.034,2.026-6.813,1.243-14.215-1.605-20.667-3.046-6.899-8.599-12.029-15.473-15.012-15.55-6.748-35.139-8.744-50.115,.493-6.45,3.978-11.737,9.871-14.231,17.093-2.41,6.981-2.054,14.947,1.22,21.586,3.645,7.391,10.987,11.654,18.564,14.121,8.628,2.809,17.902,4.07,26.961,4.05,2.294-.005,4.585-.105,6.871-.284,1.346-.105,2.5-1.074,2.5-2.5,0-1.271-1.146-2.605-2.5-2.5h0Z"/>
</svg>