<?xml version="1.0" encoding="UTF-8"?>
<svg id="_レイヤー_1" data-name="レイヤー 1" xmlns="http://www.w3.org/2000/svg" viewBox="0 0 100 100">
  <path d="M58.604,61.578c-8.053-.027-16.249-.027-24.041-2.325-5.922-1.746-11.825-5.042-15.487-10.142-3.681-5.127-4.66-11.62-2.876-17.655,1.798-6.08,6.346-10.451,12-13.07,5.788-2.68,12.381-3.501,18.679-3.944,6.442-.453,13.045-.654,19.452,.307,6.047,.907,12.235,2.796,16.985,6.801,5.009,4.222,8.164,10.395,8.491,16.962,.315,6.322-1.998,12.503-6.33,17.117-2.175,2.317-4.715,4.093-7.589,5.438-1.631,.764-3.166,1.695-4.077,3.315-.946,1.684-1.3,3.723-1.809,5.567-.566,2.052-1.132,4.103-1.698,6.155l4.178-1.103c-4.569-3.633-8.861-7.591-12.851-11.852-2.204-2.354-5.734,1.187-3.536,3.536,3.99,4.261,8.281,8.219,12.851,11.852,1.424,1.132,3.635,.865,4.178-1.103,.61-2.209,1.219-4.419,1.829-6.628,.371-1.345,.554-3.713,1.803-4.571,1.416-.972,3.135-1.513,4.599-2.432,1.54-.966,3.002-2.092,4.335-3.328,5.311-4.922,8.634-11.817,9.095-19.044,.481-7.532-2.246-15.186-7.251-20.809-4.666-5.243-11.249-8.415-18.008-9.967-7.013-1.61-14.299-1.755-21.456-1.403-7.13,.35-14.486,1.012-21.23,3.501-6.666,2.46-12.739,6.801-15.889,13.339s-3.537,14.303-.699,21.024,8.679,11.78,15.224,14.78c7.684,3.522,16.138,4.414,24.504,4.613,2.206,.053,4.414,.06,6.621,.068,3.218,.011,3.222-4.989,0-5h0Z"/>
  <path d="M10.906,46.648c-6.281,3.725-10,10.993-9.5,18.267,.263,3.818,1.478,7.57,3.551,10.793,1.848,2.874,4.694,5.041,6.341,8.029,.867,1.571,.779,3.186,.488,4.91-.391,2.316-.777,4.576-.125,6.886,.425,1.506,2.293,2.369,3.672,1.494,3.08-1.955,5.912-4.327,8.283-7.105,.584-.685,1.141-1.395,1.681-2.115,.315-.42,.84-1.573,1.354-1.758-.199,.072,.427,.132,.536,.154,.442,.091,.878,.206,1.323,.287,1.119,.203,2.262,.343,3.4,.379,7.182,.226,13.79-3.396,17.83-9.251,2.123-3.077,3.308-6.678,3.586-10.392,.101-1.348-1.221-2.5-2.5-2.5-1.437,0-2.399,1.148-2.5,2.5-.541,7.219-6.4,13.469-13.547,14.508-2.31,.336-4.437-.018-6.693-.445-2.832-.536-4.672,.587-6.272,2.837-2.435,3.423-5.456,6.333-9.005,8.585l3.672,1.494c-.584-2.069,.209-4.287,.437-6.361,.251-2.278-.145-4.443-1.217-6.472-1.929-3.651-5.444-6.121-7.369-9.801-3.704-7.082-2.021-16.382,5.096-20.604,2.765-1.64,.253-5.964-2.524-4.317h0Z"/>
</svg>