<?xml version="1.0" encoding="UTF-8"?>
<svg id="_レイヤー_1" data-name="レイヤー 1" xmlns="http://www.w3.org/2000/svg" viewBox="0 0 100 100">
  <path d="M50.472,87.388c-16.089,.49-31.489-9.167-37.461-24.236-2.983-7.526-3.892-16.091-1.707-23.953,2.311-8.318,8.988-13.901,16.186-18.102,13.827-8.07,31.523-10.679,45.683-1.963,5.974,3.677,11.04,9.218,13.401,15.897,2.852,8.064,2.204,17.392-.011,25.539-2.088,7.678-6.067,14.916-12.181,20.113-5.703,4.847-13.291,7.676-20.797,7.297-1.815-.092-3.578-.411-5.328-.899-3.104-.866-4.429,3.957-1.329,4.821,8.455,2.358,17.553,.737,25.121-3.548,7.683-4.35,13.447-11.453,16.894-19.513,3.715-8.686,5.296-18.636,4.071-28.03-1.126-8.637-5.353-16.392-11.966-22.07-6.404-5.498-14.267-8.836-22.632-9.813-9.417-1.1-18.964,.98-27.551,4.82-8.175,3.656-16.633,9.188-21.356,16.999-4.895,8.097-5.309,18.575-3.228,27.607,1.997,8.666,6.666,16.824,13.324,22.746,6.834,6.079,15.398,9.876,24.46,10.999,2.127,.264,4.265,.354,6.407,.289,3.21-.098,3.224-5.098,0-5h0Z"/>
  <path d="M38.26,35.986c3.322-5.165,11.359-8.737,15.972-3.586,1.751,1.955,2.548,4.83,1.709,7.168-.456,1.271-1.809,2.376-3.076,3.371-1.613,1.267-3.016,2.608-4.166,4.321-2.591,3.859-3.365,8.768-2.293,13.262,.747,3.129,5.569,1.804,4.821-1.329-.885-3.707,.151-7.85,2.779-10.639,1.551-1.646,3.59-2.742,5.018-4.512,1.288-1.597,1.998-3.447,2.198-5.482,.364-3.692-1.273-7.545-3.87-10.133-3.098-3.087-7.439-4.028-11.661-3.262-4.867,.882-9.115,4.203-11.748,8.298-1.746,2.714,2.58,5.224,4.317,2.524h0Z"/>
  <path d="M49.52,77.441c3.217,0,3.223-5,0-5s-3.223,5,0,5h0Z"/>
</svg>