<?xml version="1.0" encoding="UTF-8"?>
<svg id="_レイヤー_1" data-name="レイヤー 1" xmlns="http://www.w3.org/2000/svg" viewBox="0 0 100 100">
  <path d="M38.714,72.279c7.995,.239,15.995,.192,23.987-.142,3.206-.134,3.223-5.135,0-5-7.992,.334-15.992,.381-23.987,.142-3.219-.096-3.216,4.904,0,5h0Z"/>
  <path d="M49.962,81.218c-9.235-.516-18.471-1.032-27.706-1.549-2.21-.124-4.424-.221-6.632-.375-1.409-.099-2.897-.252-4.219-.778-3.454-1.375-2.78-5.898-2.886-8.924-.327-9.346-.322-18.703,.015-28.049,.08-2.232,.155-4.469,.302-6.698,.09-1.373,.248-2.873,.83-4.125,.547-1.179,1.405-1.732,2.741-1.886,2.186-.253,4.462-.154,6.661-.203,18.563-.411,37.139-.219,55.689,.574,4.638,.198,9.274,.434,13.907,.708,.203,.012,1.559,.26,1.738,.104-.414,.36-.375-1.081-.583-.352-.121,.426,.113,1.29,.149,1.724,.056,.657,.11,1.314,.163,1.971,.186,2.3,.355,4.602,.509,6.905,.613,9.211,.967,18.44,1.058,27.671,.023,2.308,.03,4.616,.02,6.924-.006,1.449,.411,3.986-.592,5.226-.754,.934-2.399,.956-3.496,1.018-2.244,.126-4.494,.186-6.74,.244-9.176,.237-18.362,.099-27.527-.415-2.291-.128-4.581-.282-6.869-.456-1.348-.102-2.5,1.222-2.5,2.5,0,1.438,1.148,2.397,2.5,2.5,9.971,.758,19.972,1.083,29.972,.956,2.459-.031,4.917-.09,7.374-.175,2.19-.076,4.432-.064,6.592-.476,2.071-.394,4.007-1.499,5.11-3.337,1.143-1.904,1.155-4.2,1.17-6.35,.068-10.056-.175-20.114-.726-30.155-.276-5.02-.629-10.037-1.059-15.046-.204-2.372-.389-4.972-3.133-5.701-1.141-.303-2.456-.243-3.626-.311-1.241-.073-2.483-.142-3.724-.21-20.196-1.092-40.43-1.47-60.652-1.134-2.486,.041-4.973,.093-7.458,.156-2.222,.056-4.664-.099-6.776,.702-3.973,1.506-5.247,5.566-5.638,9.437-.482,4.763-.478,9.626-.569,14.41-.096,5.047-.096,10.096,.001,15.144,.048,2.482,.119,4.964,.213,7.445,.085,2.236,.015,4.655,.72,6.805,1.316,4.016,4.954,5.847,8.907,6.398,4.697,.655,9.527,.66,14.259,.924l15.09,.843c2.474,.138,4.948,.277,7.421,.415,3.215,.18,3.205-4.821,0-5h0Z"/>
  <path d="M22.284,43.307c3.217,0,3.223-5,0-5s-3.223,5,0,5h0Z"/>
  <path d="M35.279,43.307c3.217,0,3.223-5,0-5s-3.223,5,0,5h0Z"/>
  <path d="M47.437,44.145c3.217,0,3.223-5,0-5s-3.223,5,0,5h0Z"/>
  <path d="M59.594,43.726c3.217,0,3.223-5,0-5s-3.223,5,0,5h0Z"/>
  <path d="M70.494,43.726c3.217,0,3.223-5,0-5s-3.223,5,0,5h0Z"/>
  <path d="M79.716,43.726c3.217,0,3.223-5,0-5s-3.223,5,0,5h0Z"/>
  <path d="M28.991,57.56c3.217,0,3.223-5,0-5s-3.223,5,0,5h0Z"/>
  <path d="M41.568,57.56c3.217,0,3.223-5,0-5s-3.223,5,0,5h0Z"/>
  <path d="M52.048,58.399c3.217,0,3.223-5,0-5s-3.223,5,0,5h0Z"/>
  <path d="M62.528,58.818c3.217,0,3.223-5,0-5s-3.223,5,0,5h0Z"/>
  <path d="M72.17,57.98c3.217,0,3.223-5,0-5s-3.223,5,0,5h0Z"/>
</svg>