<?xml version="1.0" encoding="UTF-8"?>
<svg id="_レイヤー_1" data-name="レイヤー 1" xmlns="http://www.w3.org/2000/svg" viewBox="0 0 100 100">
  <path d="M62.606,18.731c-13.86,17.761-27.72,35.522-41.58,53.282-3.938,5.046-7.876,10.093-11.814,15.139-.83,1.063-1.037,2.499,0,3.536,.864,.864,2.7,1.07,3.536,0,13.86-17.761,27.72-35.522,41.58-53.282,3.938-5.046,7.876-10.093,11.814-15.139,.83-1.063,1.037-2.499,0-3.536-.864-.864-2.7-1.07-3.536,0h0Z"/>
  <path d="M89.847,13.579c3.217,0,3.223-5,0-5s-3.223,5,0,5h0Z"/>
  <path d="M83.56,21.317c3.217,0,3.223-5,0-5s-3.223,5,0,5h0Z"/>
  <path d="M77.756,27.605c3.217,0,3.223-5,0-5s-3.223,5,0,5h0Z"/>
  <path d="M70.985,35.827c3.217,0,3.223-5,0-5s-3.223,5,0,5h0Z"/>
  <path d="M66.632,40.664c3.217,0,3.223-5,0-5s-3.223,5,0,5h0Z"/>
  <path d="M59.377,48.886c3.217,0,3.223-5,0-5s-3.223,5,0,5h0Z"/>
  <path d="M56.475,54.206c3.217,0,3.223-5,0-5s-3.223,5,0,5h0Z"/>
  <path d="M50.188,61.46c3.217,0,3.223-5,0-5s-3.223,5,0,5h0Z"/>
  <path d="M45.835,67.264c3.217,0,3.223-5,0-5s-3.223,5,0,5h0Z"/>
  <path d="M39.064,75.003c3.217,0,3.223-5,0-5s-3.223,5,0,5h0Z"/>
  <path d="M35.195,80.323c3.217,0,3.223-5,0-5s-3.223,5,0,5h0Z"/>
  <path d="M29.391,87.578c3.217,0,3.223-5,0-5s-3.223,5,0,5h0Z"/>
</svg>