<?xml version="1.0" encoding="UTF-8"?>
<svg id="_レイヤー_1" data-name="レイヤー 1" xmlns="http://www.w3.org/2000/svg" viewBox="0 0 100 100">
  <path d="M87.088,5.861c-4.589-2.463-10.128-3.104-15.093-1.396-4.253,1.463-7.773,4.296-10.846,7.513-3.126,3.272-5.915,6.838-9.12,10.038-3.589,3.583-6.95,7.309-7.961,12.451-1.133,5.762,.103,11.608,1.451,17.221,.752,3.127,5.574,1.803,4.821-1.329-1.037-4.316-2.04-8.721-1.649-13.19,.382-4.377,2.839-7.566,5.829-10.575,2.882-2.901,5.546-5.948,8.259-9.004,2.535-2.855,5.226-5.678,8.643-7.473,4.109-2.159,9.052-2.133,13.141,.061,2.835,1.522,5.363-2.793,2.524-4.317h0Z"/>
  <path d="M83.955,9.695c2.627,2.026,5.06,4.665,5.906,7.948,.411,1.595,.429,3.321-.186,4.869-.625,1.573-1.805,2.872-2.921,4.113-2.854,3.176-5.758,6.308-8.695,9.407-1.444,1.524-2.898,3.039-4.361,4.546-1.282,1.32-2.523,2.899-4.009,3.993-1.579,1.163-4.243,.668-6.08,.673-2.473,.006-4.946,.012-7.419,.018-3.217,.008-3.223,5.008,0,5,2.473-.006,4.946-.012,7.419-.018,2.258-.006,4.798,.269,6.956-.527,2.251-.83,3.851-2.718,5.484-4.389,1.694-1.732,3.375-3.477,5.044-5.233,3.302-3.474,6.6-6.967,9.762-10.57,1.509-1.719,2.851-3.518,3.64-5.684,.801-2.196,.792-4.642,.331-6.91-.995-4.892-4.532-8.61-8.349-11.554-1.07-.825-2.8-.163-3.42,.897-.755,1.291-.176,2.593,.897,3.42h0Z"/>
  <path d="M40.42,46.797c-9.718-4.101-16.928,6.319-22.59,12.494-3.23,3.524-6.638,6.95-9.5,10.789-2.519,3.379-4.458,7.484-4.256,11.793,.196,4.198,2.173,8.319,5.478,10.95,3.506,2.791,8.064,3.798,12.445,2.898,4.576-.94,8.158-4.406,11.515-7.425,3.478-3.128,6.795-6.434,9.936-9.9,1.722-1.901,3.39-3.851,5.003-5.846,1.598-1.977,3.224-3.958,4.221-6.319,1.01-2.393,1.091-4.871,.379-7.362-.534-1.866-1.879-4.083-1.586-6.078,.196-1.334-.331-2.687-1.746-3.075-1.177-.323-2.878,.402-3.075,1.746-.295,2.009-.051,3.858,.588,5.781,.506,1.525,1.288,3.112,1.328,4.741,.084,3.457-3.312,6.68-5.371,9.126-5.204,6.182-10.962,12.208-17.337,17.2-2.764,2.164-5.998,3.344-9.497,2.452-3.131-.798-5.688-3.123-6.729-6.199-2.445-7.224,3.981-13.269,8.394-18.083,3.37-3.676,6.678-7.421,10.126-11.023,2.276-2.377,6.098-5.882,9.752-4.34,1.243,.525,2.677,.374,3.42-.897,.613-1.047,.354-2.893-.897-3.42h0Z"/>
</svg>