<?xml version="1.0" encoding="UTF-8"?>
<svg id="_レイヤー_1" data-name="レイヤー 1" xmlns="http://www.w3.org/2000/svg" viewBox="0 0 100 100">
  <path d="M6.701,38.411c-.921,10.011-1.026,20.088-.28,30.114,.374,5.026,.95,10.043,1.742,15.021,.345,2.165,.89,4.274,2.401,5.939,1.239,1.366,3.038,2.186,4.819,2.556,1.793,.373,3.629,.416,5.452,.377,2.648-.057,5.295-.131,7.943-.196,5.047-.125,10.094-.249,15.141-.374,5.13-.127,10.259-.253,15.389-.38,4.445-.11,9.469,.345,13.589-1.626,3.596-1.72,5.431-5.476,6.194-9.212,.914-4.478,1.062-9.183,1.234-13.737,.19-5.02,.147-10.049-.126-15.065-.137-2.508-.331-5.013-.584-7.512-.234-2.316-.37-4.751-.876-7.026-.526-2.364-2.41-3.396-4.647-3.76-2.207-.359-4.441-.529-6.677-.442-2.299,.089-4.611,.412-6.845,.964-2.027,.5-4.414,1.118-6.176,2.275-2.22,1.457-1.919,3.745-1.79,6.073,.14,2.534,.159,5.074,.056,7.609-.096,2.346-.119,4.88-.669,7.17-.466,1.939-2.671,1.703-4.301,1.842-2.499,.213-4.997,.426-7.496,.639-1.209,.103-2.418,.208-3.627,.309-.7,.059-1.77,.383-2.225-.242-.449-.615-.326-1.988-.376-2.69-.098-1.392-.151-2.788-.16-4.184-.016-2.545,.114-5.091,.392-7.621,.241-2.193,.738-4.411-.276-6.493-.816-1.675-2.494-2.731-4.255-3.184-1.724-.443-3.524-.412-5.284-.303-2.559,.158-5.118,.32-7.677,.481s-5.118,.32-7.677,.481-2.575,4.161,0,4c4.788-.3,9.576-.599,14.364-.899,1.711-.107,3.527-.335,5.212,.098,1.576,.405,2.046,1.315,1.935,2.919-.158,2.282-.54,4.539-.654,6.829-.118,2.378-.107,4.763,.033,7.139,.114,1.94,.087,4.214,1.242,5.874,1.399,2.011,3.705,1.941,5.89,1.755,4.538-.387,9.179-.529,13.681-1.215,1.879-.287,3.632-1.164,4.538-2.911,.981-1.889,.999-4.286,1.174-6.363,.2-2.365,.292-4.74,.279-7.113-.007-1.146-.038-2.292-.094-3.436-.028-.572-.063-1.144-.103-1.716-.018-.256-.213-1.151-.085-1.41,.18-.364,1.568-.728,2.033-.897,1.104-.401,2.231-.739,3.373-1.013,2.046-.49,4.125-.749,6.228-.786,1.969-.035,4.204-.038,6.106,.543,.768,.235,.698,.663,.814,1.442,.177,1.184,.306,2.379,.439,3.569,.53,4.751,.851,9.525,.963,14.304,.109,4.698,.016,9.401-.28,14.091-.238,3.766-.276,7.92-1.717,11.472-.606,1.493-1.574,2.818-2.989,3.623-1.637,.932-3.615,1.097-5.459,1.179-4.691,.209-9.396,.243-14.091,.359-9.68,.239-19.361,.478-29.041,.717-2.83,.07-7.525,.76-9.542-1.836-1.18-1.519-1.246-3.908-1.515-5.733-.339-2.309-.626-4.625-.868-6.947-.984-9.431-1.223-18.941-.713-28.41,.126-2.347,.302-4.691,.517-7.032,.099-1.077-.99-2-2-2-1.164,0-1.901,.92-2,2h0Z"/>
  <path d="M40.951,76.224c-.441-.034-.882-.068-1.321-.12,.378,.044-.2-.036-.309-.057-.246-.047-.49-.104-.731-.174-.119-.035-.237-.087-.357-.115-.208-.047-.008,.007,.041,.028-.169-.073-.333-.162-.491-.256-.091-.055-.176-.119-.267-.173-.189-.112,.068,.051,.088,.071-.149-.145-.298-.302-.452-.442,.253,.231,.097,.152,.028,.033-.051-.089-.107-.178-.16-.266-.183-.306,.046,.256-.034-.092-.023-.102-.051-.2-.071-.302,.017,.088,.023,.413,.031,.044,0-.04,.003-.321-.01-.062-.015,.274,.048-.181,.058-.216,.023-.079,.054-.156,.077-.235,.078-.268-.165,.249,0,.021,.113-.156,.198-.345,.306-.506,.018-.027,.195-.238,.051-.071-.16,.185,.084-.084,.122-.125,.155-.168,.32-.327,.492-.478,.064-.056,.13-.109,.194-.164-.263,.227-.042,.031,.02-.011,.173-.117,.344-.235,.524-.342s.362-.208,.549-.301c.08-.04,.162-.076,.242-.114,.199-.096-.252,.07,.101-.031,.199-.057,.393-.128,.594-.178,.132-.033,.642-.124,.249-.073,.204-.026,.41-.037,.615-.039,.118-.001,.235,.002,.353,.008,.051,.003,.424,.052,.162,.008-.255-.043,.269,.067,.347,.089,.065,.018,.578,.208,.341,.105-.242-.105,.242,.131,.313,.172,.138,.08,.54,.407,.226,.124,.152,.137,.305,.266,.446,.416,.052,.055,.098,.116,.151,.17,.152,.159-.072-.088-.082-.106,.097,.175,.213,.339,.307,.517,.032,.06,.078,.265,.019,.037-.076-.292,.04,.175,.043,.189,.019,.073,.029,.15,.049,.222,.066,.24,0-.401-.016-.026-.003,.072,0,.144-.003,.216-.018,.414,.066,.03,.012-.03,.067,.075-.212,.51-.158,.557-.026-.023,.226-.431,.026-.08-.048,.084-.092,.17-.143,.252-.032,.051-.106,.195-.161,.24,.095-.076,.221-.24,.037-.073-.067,.061-.14,.133-.204,.2-.24,.25,.203-.081,.012-.011-.055,.02-.133,.076-.18,.11-.274,.195,.217-.014,.03,0-.056,.004-.148,.043-.202,.062-.414,.154,.416-.017-.032,.012-1.042,.068-2.051,.871-2,2,.046,1.026,.882,2.073,2,2,2.765-.179,4.784-2.448,4.96-5.167,.171-2.641-1.848-4.829-4.148-5.763-2.412-.98-5.333-.294-7.398,1.174-2.157,1.533-4.047,4.152-3.006,6.912,.534,1.415,1.645,2.592,3.023,3.224,1.494,.685,3.074,.86,4.697,.983,1.046,.08,2.046-.977,2-2-.052-1.152-.88-1.915-2-2h0Z"/>
  <path d="M79.066,36.602c1.601-1.849,3.338-3.569,5.225-5.127,.867-.715,1.77-1.383,2.698-2.016,.441-.301,1.067-.568,1.445-.942l.182-.107c.351-.14,.236-.255-.345-.344,0,0,.071,.302,.073,.263-.053,1.01,.244,2.212,.324,3.235,.115,1.482,.223,2.965,.325,4.448,.186,2.719,.348,5.44,.486,8.162,.281,5.526,.465,11.058,.552,16.59,.039,2.491,.353,5.229-.199,7.678-.516,2.292-2.007,4.254-3.461,6.046-3.409,4.2-7.477,7.792-12.067,10.652-2.18,1.358-.174,4.82,2.019,3.454,4.744-2.955,9.044-6.633,12.605-10.946,1.739-2.106,3.451-4.313,4.395-6.905,1.006-2.763,.763-5.854,.725-8.74-.084-6.441-.3-12.881-.647-19.314-.169-3.134-.37-6.266-.601-9.396-.11-1.481-.196-2.969-.35-4.446-.126-1.21-.341-2.456-1.174-3.402-2.437-2.767-5.904,.191-8.055,1.819-2.552,1.931-4.888,4.089-6.983,6.509-1.677,1.938,1.14,4.779,2.828,2.828h0Z"/>
  <path d="M11.557,38.394c1.881-1.399,3.763-2.799,5.644-4.198,.433-.322,.77-.655,.919-1.195,.132-.479,.072-1.116-.202-1.541-.275-.427-.685-.803-1.195-.919-.491-.112-1.118-.113-1.541,.202-1.881,1.399-3.763,2.799-5.644,4.198-.433,.322-.77,.655-.919,1.195-.132,.479-.072,1.116,.202,1.541,.275,.427,.685,.803,1.195,.919,.491,.112,1.118,.113,1.541-.202h0Z"/>
  <path d="M18.974,35.528l-.229-4.073-.108-1.917c-.018-.319-.039-.639-.054-.958-.01-.134-.016-.268-.018-.402-.012-.209-.007-.216,.016-.021l-.718,.718c.246-.151,1.739-.151,2.361-.197,1.067-.078,2.134-.152,3.202-.222,2.053-.135,4.107-.255,6.161-.36,4.109-.211,8.221-.362,12.335-.455,8.309-.187,16.624-.134,24.93,.159,1.151,.041,2.303,.086,3.454,.136,.722,.031,1.26-.155,1.4,.426,.207,.855,.07,1.863,.072,2.736,.003,1.219,.007,2.439,.01,3.658,.007,2.573,4.007,2.578,4,0-.006-2.406,.318-5.096-.225-7.458-.586-2.551-2.667-3.245-5.011-3.351-5.343-.242-10.692-.37-16.041-.406-10.78-.072-21.563,.261-32.318,.998-1.476,.101-2.96,.176-4.432,.327-1.318,.135-2.568,.619-3.016,2-.414,1.275-.103,2.801-.029,4.111l.256,4.553c.144,2.559,4.145,2.576,4,0h0Z"/>
  <path d="M22.783,25.032l.367-3.694-2,2c9.158-.667,18.315-1.334,27.473-2.001,2.212-.161,4.445-.405,6.665-.291,2.103,.109,4.09,.818,6.138,1.242,4.232,.876,8.332-.138,12.577-.064,.708,.012,2.674-.075,3.219,.474,.366,.37,.17,2.056,.182,2.551,.062,2.581-.046,5.159-.294,7.729-.104,1.077,.993,2,2,2,1.168,0,1.896-.92,2-2,.232-2.409,.342-4.825,.303-7.245-.035-2.168,.154-4.82-1.826-6.228-1.709-1.215-4.226-1.306-6.25-1.28-2.319,.03-4.617,.399-6.934,.48-2.281,.08-4.341-.366-6.539-.912-2.292-.569-4.564-.842-6.927-.746-4.956,.2-9.915,.697-14.862,1.058-5.642,.411-11.283,.822-16.925,1.233-1.162,.085-1.886,.854-2,2l-.367,3.694c-.107,1.076,.996,2,2,2,1.171,0,1.893-.921,2-2h0Z"/>
  <path d="M29.444,17.63c.074,.042,.326,.938,.294,.911,.115,.095-.225-.055,.194,0,.268,.035,.735-.121,1.011-.146,1.145-.102,2.29-.198,3.436-.296,2.293-.196,4.586-.388,6.88-.568,4.424-.347,8.853-.649,13.286-.851,8.922-.407,17.88-.406,26.775,.465,.653,.064,1.307,.124,1.957,.206,.043,.005,.535,.092,.553,.075,.134,.053,.102,0-.098-.161-.15-.25-.205-.245-.164,.017-.237,.355-.048,1.445-.064,1.895-.02,.566-.041,1.131-.061,1.697-.093,2.586-.186,5.172-.278,7.758s3.908,2.571,4,0c.099-2.748,.197-5.495,.296-8.243,.083-2.323,.698-5.468-1.953-6.598-1.058-.451-2.323-.456-3.454-.573-1.467-.152-2.937-.279-4.408-.385-2.696-.194-5.396-.314-8.098-.373-11.005-.239-22,.53-32.959,1.451-1.555,.131-3.11,.264-4.665,.399-1.355,.117-2.815,.124-4.054,.753-2.322,1.178-2.871,4.627-.444,6.021,2.236,1.285,4.253-2.17,2.019-3.454h0Z"/>
</svg>