<?xml version="1.0" encoding="UTF-8"?>
<svg id="_レイヤー_1" data-name="レイヤー 1" xmlns="http://www.w3.org/2000/svg" viewBox="0 0 100 100">
  <path d="M24.601,15.979c-3.569-2.136-8.04-.487-10.389,2.672-2.59,3.484-2.436,8.179-2.579,12.308-.337,9.749-.64,19.505-.479,29.261,.081,4.909,.279,9.817,.651,14.712,.186,2.447,.415,4.89,.694,7.328,.252,2.204,.351,4.586,.97,6.723,1.323,4.564,6.596,5.527,10.629,6.505,4.466,1.083,9.052,1.699,13.634,2.004,9.226,.614,18.475-.092,27.67-.846,3.667-.301,7.644-.629,10.812-2.697,3.756-2.451,4.777-6.482,4.881-10.739,.24-9.842,.268-19.694,.401-29.539,.067-4.993,.134-9.986,.202-14.979,.034-2.496,.067-4.993,.101-7.489,.029-2.184,.13-4.372-.23-6.536-.716-4.302-4.052-6.897-8.19-7.639-4.549-.816-9.316-.843-13.922-1.084-9.743-.509-19.503-.702-29.258-.58-2.48,.031-4.96,.084-7.44,.154-3.211,.091-3.224,5.092,0,5,9.009-.256,18.024-.252,27.033,.025,4.463,.137,8.923,.341,13.38,.61,2.287,.138,4.574,.285,6.858,.467,1.374,.109,2.85,.242,4.139,.768,3.364,1.374,2.673,5.618,2.633,8.565-.062,4.577-.123,9.154-.185,13.731-.122,9.07-.244,18.141-.366,27.211-.058,4.31,.094,8.684-.233,12.982-.112,1.475-.486,3.021-1.553,4.101-.936,.948-2.175,1.468-3.443,1.824-3.445,.968-7.179,.982-10.724,1.247-4.19,.314-8.387,.568-12.589,.647-8.323,.156-16.695-.382-24.733-2.678-.947-.27-1.891-.56-2.821-.883-.532-.185-1.214-.391-1.579-.849-.402-.504-.458-1.321-.554-1.934-.176-1.116-.304-2.241-.437-3.363-.52-4.386-.877-8.791-1.108-13.202-.468-8.919-.428-17.857-.212-26.783,.107-4.426,.258-8.851,.411-13.276,.101-2.897-.175-7.267,2.58-9.112,.945-.633,1.906-.871,2.822-.323,2.768,1.656,5.285-2.665,2.524-4.317h0Z"/>
  <path d="M20.165,19.565c4.961-6.419,13.225-8.224,20.926-8.757,10.52-.729,21.254-.158,31.743,.772,3.938,.349,9.068,.364,11.223,4.31,1.975,3.616,1.344,8.456,1.256,12.399-.249,11.168-.499,22.337-.748,33.505-.069,3.103-.129,6.206-.209,9.309-.071,2.755-.174,5.526-.806,8.219-1.004,4.282-3.586,8.527-8.204,9.4-1.327,.251-2.083,1.85-1.746,3.075,.382,1.391,1.744,1.998,3.075,1.746,4.688-.887,8.433-4.613,10.328-8.865,2.301-5.163,2.294-10.884,2.418-16.431,.271-12.161,.543-24.322,.814-36.483,.112-5.021,.732-10.441-.637-15.349-1.417-5.078-5.334-8.173-10.442-9.099-5.771-1.046-11.805-1.23-17.654-1.49-5.755-.255-11.537-.367-17.296-.175-9.828,.327-21.159,2.077-27.576,10.378-.825,1.067-1.04,2.495,0,3.536,.86,.86,2.705,1.075,3.536,0h0Z"/>
  <path d="M32.187,43.005c7.253-.432,14.506-.865,21.759-1.297,1.348-.08,2.5-1.091,2.5-2.5,0-1.291-1.145-2.581-2.5-2.5-7.253,.432-14.506,.865-21.759,1.297-1.348,.08-2.5,1.091-2.5,2.5,0,1.291,1.145,2.581,2.5,2.5h0Z"/>
  <path d="M33.217,56.892c6.553-.546,13.129-.72,19.701-.518,1.351,.041,2.5-1.179,2.5-2.5,0-1.389-1.145-2.459-2.5-2.5-6.572-.201-13.148-.028-19.701,.518-1.346,.112-2.5,1.069-2.5,2.5,0,1.266,1.147,2.613,2.5,2.5h0Z"/>
  <path d="M36.325,71.257c6.223-.097,12.445-.193,18.668-.29,3.214-.05,3.224-5.05,0-5-6.223,.097-12.445,.193-18.668,.29-3.214,.05-3.224,5.05,0,5h0Z"/>
</svg>