<?xml version="1.0" encoding="UTF-8"?>
<svg id="_レイヤー_1" data-name="レイヤー 1" xmlns="http://www.w3.org/2000/svg" viewBox="0 0 100 100">
  <path d="M7.931,28.167c.973,16.957,1.071,33.956,.292,50.924-.148,3.217,4.853,3.209,5,0,.779-16.967,.681-33.966-.292-50.924-.184-3.199-5.185-3.22-5,0h0Z"/>
  <path d="M13.501,28.739c10.274-.868,20.607-.956,30.892-.227,5.079,.36,10.145,.906,15.179,1.673,2.54,.387,5.108,.76,7.618,1.312,.083,.018,.685,.156,.679,.165l-.348-.41c-.316-.547-.43-.559-.34-.036-.196,.464,.004,1.465,.006,1.983,.004,1.322,.008,2.644,.012,3.965,.032,10.574,.064,21.148,.095,31.722,.008,2.644,.016,5.287,.024,7.931,0,.3-.053,.71,.003,.991l-.003,.168c-.046,.628,.246,.313,.876-.944-.166-.199-1.421-.056-1.742-.069-1.411-.056-2.821-.111-4.232-.167-5.31-.209-10.62-.418-15.931-.627-11.948-.471-23.896-.941-35.844-1.412-3.218-.127-3.212,4.873,0,5,11.45,.451,22.9,.902,34.35,1.353,5.642,.222,11.284,.444,16.926,.667,1.411,.056,2.821,.111,4.232,.167,1.389,.055,3.014,.341,4.302-.305,2.741-1.374,2.062-5.016,2.055-7.548-.034-11.318-.068-22.635-.102-33.953-.008-2.809-.009-5.618-.025-8.426-.008-1.384-.127-2.765-1.159-3.802-.943-.947-2.196-1.179-3.453-1.414-5.522-1.035-11.091-1.836-16.679-2.417-12.42-1.289-24.948-1.391-37.39-.34-1.345,.114-2.5,1.068-2.5,2.5,0,1.264,1.147,2.614,2.5,2.5h0Z"/>
  <path d="M41.925,45.504c-1.191,.9-2.388,1.792-3.572,2.701-.853,.654-1.637,1.4-1.875,2.502s.023,2.244,.645,3.176c.889,1.332,2.037,2.536,3.057,3.77s2.031,2.458,3.047,3.687c.836,1.012,2.681,.931,3.536,0,.988-1.076,.892-2.456,0-3.536-1.635-1.978-3.269-3.957-4.904-5.935-.099-.12-.197-.241-.297-.36-.191-.225-.181-.121-.003,.014-.093-.071-.16-.238-.225-.334-.165-.244-.043-.129,.012,.067,.084,.302-.032,.77-.181,1.028-.079,.136-.282,.314-.06,.085,.204-.211,.065-.066-.081,.042,.121-.089,.241-.182,.361-.273l3.067-2.317c.541-.409,.962-.814,1.149-1.494,.165-.598,.09-1.395-.252-1.926-.663-1.028-2.304-1.74-3.42-.897h0Z"/>
  <path d="M44.065,55.113c8.087,.036,16.151,.741,24.112,2.166,1.328,.238,2.695-.36,3.075-1.746,.332-1.21-.41-2.836-1.746-3.075-8.399-1.504-16.908-2.307-25.441-2.345-3.218-.014-3.222,4.986,0,5h0Z"/>
  <path d="M72.409,55.979c5.902-.115,11.805-.23,17.707-.345,1.351-.026,2.5-1.13,2.5-2.5,0-1.335-1.144-2.526-2.5-2.5-5.902,.115-11.805,.23-17.707,.345-1.351,.026-2.5,1.13-2.5,2.5,0,1.335,1.144,2.526,2.5,2.5h0Z"/>
  <path d="M86.565,49.001l2.598,2.494c.196,.188,.433,.524,.667,.66-.306-.366-.439-.763-.397-1.191l.072-.145c.055,.114-.375,.842-.434,.975-.127,.284-.253,.569-.38,.853-1.03,2.316-2.061,4.632-3.091,6.947-.53,1.192-.386,2.743,.897,3.42,1.088,.575,2.853,.379,3.42-.897,1.211-2.722,2.423-5.444,3.634-8.166,.383-.862,.836-1.708,.864-2.673,.031-1.089-.457-2.037-1.194-2.814-.988-1.043-2.083-2.002-3.12-2.998-.944-.906-2.609-1.009-3.536,0-.901,.981-1.008,2.568,0,3.536h0Z"/>
</svg>