<?xml version="1.0" encoding="UTF-8"?>
<svg id="_レイヤー_1" data-name="レイヤー 1" xmlns="http://www.w3.org/2000/svg" viewBox="0 0 100 100">
  <path d="M9.655,22.819c-.372,19.888-.743,39.776-1.115,59.664-.024,1.272,1.167,2.607,2.5,2.5,10.991-.885,22.021-1.234,33.046-1.026,10.761,.203,21.434,1.098,32.138,2.157,5.567,.551,11.39,.748,16.657-1.441,.963-.4,1.929-1.235,1.835-2.411-1.596-20.11-3.191-40.22-4.787-60.33-.099-1.249-1.069-2.634-2.5-2.5-9.214,.865-18.499,.859-27.709-.062-4.539-.454-9.035-1.364-13.586-1.678-4.619-.318-9.001,.716-13.545,1.318-5.151,.683-10.325-.005-15.427-.752-1.334-.195-2.687,.331-3.075,1.746-.323,1.176,.402,2.879,1.746,3.075,4.666,.683,9.382,1.409,14.112,1.169,4.545-.231,8.963-1.591,13.519-1.641,4.716-.052,9.39,.987,14.058,1.526,4.636,.536,9.297,.844,13.963,.923,5.322,.09,10.644-.127,15.943-.624l-2.5-2.5c1.596,20.11,3.191,40.22,4.787,60.33l1.835-2.411c-4.478,1.861-9.247,1.804-14,1.387-5.242-.46-10.464-1.086-15.715-1.468-10.832-.789-21.703-1.043-32.56-.762-6.087,.157-12.168,.487-18.237,.975l2.5,2.5c.372-19.888,.743-39.776,1.115-59.664,.06-3.219-4.94-3.219-5,0h0Z"/>
</svg>