<?xml version="1.0" encoding="UTF-8"?>
<svg id="_レイヤー_1" data-name="レイヤー 1" xmlns="http://www.w3.org/2000/svg" viewBox="0 0 100 100">
  <path d="M9.942,10.32c-.447,8.809-.594,17.63-.441,26.448,.056,3.214,5.056,3.224,5,0-.153-8.819-.006-17.64,.441-26.448,.163-3.216-4.837-3.207-5,0h0Z"/>
  <path d="M15.529,10.199c4.432-.15,8.867-.085,13.291,.217,2.171,.148,4.338,.352,6.499,.61,1.973,.236,4.337,.277,6.192,.998l-1.103-.643c-.276-.921-.385-1.004-.327-.248-.004,.332-.008,.664-.012,.996-.008,.664-.016,1.328-.024,1.992-.016,1.328-.032,2.655-.048,3.983-.03,2.489-.06,4.979-.09,7.468s-.06,4.979-.09,7.468c-.015,1.213,.146,2.575-.06,3.771-.106,.619-.143,.582-.729,.704-2.047,.426-4.45,.065-6.528,0-2.464-.078-4.928-.197-7.388-.359-5.025-.33-10.041-.829-15.03-1.519-1.336-.185-2.685,.324-3.075,1.746-.321,1.168,.4,2.889,1.746,3.075,6.492,.898,13.012,1.551,19.559,1.884,3.144,.16,6.313,.319,9.462,.272,2.822-.042,5.831-.976,6.705-3.991,.38-1.312,.303-2.739,.32-4.09,.021-1.743,.042-3.485,.063-5.228,.039-3.236,.078-6.473,.118-9.709,.02-1.66,.04-3.319,.06-4.979,.019-1.579,.294-3.384-.046-4.934-.32-1.459-1.358-2.323-2.788-2.669-1.683-.408-3.492-.55-5.207-.777-7.117-.94-14.295-1.282-21.469-1.04-3.209,.108-3.224,5.109,0,5h0Z"/>
  <path d="M45.047,29.969c4.313,.399,8.211,3.106,10.831,6.451,3.098,3.955,4.596,8.919,5.469,13.793,.238,1.33,1.859,2.08,3.075,1.746,1.401-.385,1.985-1.742,1.746-3.075-1.054-5.88-3.128-11.615-6.97-16.263-3.542-4.285-8.604-7.138-14.152-7.652-1.346-.125-2.5,1.238-2.5,2.5,0,1.456,1.15,2.375,2.5,2.5h0Z"/>
  <path d="M57.439,52.969c2.308,1.757,5.755,1.386,8.116-.051,2.392-1.455,3.88-3.901,5.201-6.289,.633-1.144,.316-2.78-.897-3.42-1.175-.621-2.744-.325-3.42,.897-.525,.949-1.054,1.899-1.68,2.786-.062,.088-.126,.175-.189,.262-.319,.442,.256-.298,.045-.06-.177,.201-.344,.409-.528,.604s-.375,.381-.576,.558c-.096,.085-.223,.165-.307,.259,.132-.148,.377-.277,.072-.071-.181,.122-.368,.235-.56,.337-.108,.057-.219,.106-.328,.161-.273,.137,.54-.196,.123-.058-.232,.076-.462,.152-.7,.206-.118,.027-.238,.045-.356,.07-.283,.06,.662-.034,.163-.03-.239,.002-.473,.009-.712,.001-.349-.012,.167,.013,.245,.04-.125-.044-.282-.054-.41-.088-.09-.024-.178-.055-.267-.081-.454-.134,.376,.206,.147,.064-.225-.139-.445-.253-.657-.415-.48-.366-1.375-.404-1.926-.252-.58,.16-1.208,.608-1.494,1.149-.307,.58-.46,1.283-.252,1.926,.214,.661,.601,1.077,1.149,1.494h0Z"/>
  <path d="M50.468,63.656c-.702,9.243-1.121,18.505-1.256,27.774-.047,3.219,4.953,3.22,5,0,.135-9.269,.554-18.53,1.256-27.774,.102-1.348-1.222-2.5-2.5-2.5-1.438,0-2.397,1.148-2.5,2.5h0Z"/>
  <path d="M54.546,64.793c5.145-.752,10.318-1.308,15.504-1.681,4.97-.358,10.124-.825,15.107-.54,.318,.018,1.003,.175,1.032,.212,.08,.104,.013,1.064,.014,1.318,.002,.657,0,1.314,0,1.97,0,2.627,.002,5.254,.003,7.881s.002,5.254,.003,7.881c0,2.577,.143,5.201-.022,7.773l.341-1.262-.148,.338,.897-.897c.143-.107,.094,.034-.213,.017-.314-.017-.673,.073-.986,.106-.74,.079-1.48,.155-2.22,.229-1.563,.156-3.127,.302-4.691,.437-3.047,.264-6.098,.488-9.151,.672-6.106,.369-12.221,.576-18.338,.632-3.216,.03-3.224,5.03,0,5,7.274-.067,14.545-.348,21.802-.859,3.628-.255,7.252-.566,10.871-.933,1.508-.153,3.197-.124,4.643-.578,2.291-.718,2.217-3.046,2.216-5.013-.002-7.143-.005-14.285-.007-21.428,0-1.765,.237-3.783-.527-5.424-.663-1.423-1.887-2.333-3.381-2.767-1.267-.369-2.643-.334-3.948-.32-1.972,.021-3.943,.07-5.914,.145-8.109,.308-16.187,1.091-24.216,2.265-1.337,.195-2.072,1.889-1.746,3.075,.394,1.434,1.734,1.942,3.075,1.746h0Z"/>
</svg>