<?xml version="1.0" encoding="UTF-8"?>
<svg id="_レイヤー_1" data-name="レイヤー 1" xmlns="http://www.w3.org/2000/svg" viewBox="0 0 100 100">
  <path d="M20.044,25.538c-.073,16.745-.146,33.489-.219,50.234-.014,3.218,4.986,3.222,5,0,.073-16.745,.146-33.489,.219-50.234,.014-3.218-4.986-3.222-5,0h0Z"/>
  <path d="M24.731,26.94c16.788-.8,33.611-.672,50.386,.383l-2.5-2.5c-.569,17.164-.908,34.336-1.018,51.51-.021,3.218,4.979,3.222,5,0,.11-17.174,.45-34.345,1.018-51.51,.047-1.412-1.186-2.417-2.5-2.5-16.774-1.055-33.597-1.183-50.386-.383-3.203,.153-3.222,5.154,0,5h0Z"/>
  <path d="M24.182,79.067c8.277-.335,16.554-.671,24.831-1.006,8.147-.33,16.488-1.167,24.607-.108,1.341,.175,2.5-1.274,2.5-2.5,0-1.496-1.155-2.325-2.5-2.5-8.119-1.059-16.459-.222-24.607,.108-8.277,.335-16.554,.671-24.831,1.006-3.206,.13-3.223,5.131,0,5h0Z"/>
  <path d="M64.81,10.589c6.353-.087,12.903,1.886,17.271,6.699,4.065,4.479,5.574,11.037,4.066,16.86-.807,3.117,4.014,4.447,4.821,1.329,1.94-7.489-.018-15.619-5.1-21.441-5.187-5.943-13.349-8.552-21.058-8.447-3.215,.044-3.224,5.044,0,5h0Z"/>
  <path d="M81.198,33.414c1.091,1.168,2.183,2.336,3.274,3.504,1.33,1.424,2.776,2.893,4.927,2.392,.78-.181,1.413-.62,2.04-1.09,.673-.504,1.335-1.023,1.966-1.579,1.041-.919,1.992-1.932,2.858-3.017,.429-.538,.732-1.051,.732-1.768,0-.613-.272-1.346-.732-1.768-.906-.832-2.665-1.092-3.536,0-.721,.904-1.501,1.759-2.345,2.55-.434,.407-.883,.797-1.346,1.169-.044,.035-.387,.3-.137,.11,.279-.211-.168,.122-.222,.162-.229,.167-.476,.31-.704,.475-.123,.066-.105,.06,.053-.018,.162-.1,.341-.119,.538-.059,.429,.04,.537,.033,.324-.02-.13-.039-.109-.03,.062,.028,.193,.082,.192,.066-.004-.047l.226,.162s-.24-.233-.261-.254c-.468-.476-.914-.977-1.37-1.465l-2.806-3.004c-.895-.958-2.643-.972-3.536,0-.942,1.026-.955,2.514,0,3.536h0Z"/>
  <path d="M7.602,63.103c1.531-1.449,3.062-2.898,4.593-4.347h-3.536c.378,.377,.746,.764,1.099,1.164,.168,.191,.333,.384,.496,.58,.081,.098,.161,.196,.241,.296,.048,.059,.095,.119,.142,.179,.116,.148,.063,.08-.158-.204,.098,.213,.315,.421,.452,.614,.147,.207,.292,.416,.432,.628,.31,.466,.601,.943,.879,1.428,.65,1.135,2.293,1.624,3.42,.897,1.146-.739,1.593-2.206,.897-3.42-1.189-2.076-2.671-4.007-4.365-5.696-.975-.973-2.552-.931-3.536,0-1.531,1.449-3.062,2.898-4.593,4.347-.952,.901-.976,2.639,0,3.536,1.021,.937,2.52,.961,3.536,0h0Z"/>
  <path d="M8.151,59.845c-.02,4.732-.227,9.511,.088,14.236,.274,4.116,1.087,8.26,3.209,11.852,2.02,3.419,5.058,5.878,8.802,7.181,3.764,1.311,7.898,1.325,11.837,1.298,3.216-.022,3.223-5.022,0-5-3.331,.023-6.729,.051-9.945-.937-3.028-.93-5.281-2.959-6.753-5.738-1.637-3.092-2.092-6.647-2.223-10.097-.162-4.257-.032-8.535-.014-12.795,.013-3.218-4.987-3.222-5,0h0Z"/>
</svg>