<?xml version="1.0" encoding="UTF-8"?>
<svg id="_レイヤー_1" data-name="レイヤー 1" xmlns="http://www.w3.org/2000/svg" viewBox="0 0 100 100">
  <path d="M48.312,6.625c-5.516-.57-11.053-.922-16.598-1.037-2.772-.058-5.545-.057-8.317,.001-2.635,.055-5.34,.023-7.947,.441-2.266,.364-4.379,1.577-5.45,3.67-1.06,2.074-1.08,4.418-1.073,6.693,.017,5.545,.035,11.091,.052,16.636,.035,11.256,.071,22.512,.106,33.768,.017,5.545,.029,11.091,.052,16.636,.01,2.367,.153,4.838,1.648,6.789,1.507,1.968,3.824,2.665,6.204,2.859,2.597,.212,5.255,.044,7.858,.034,2.816-.01,5.632-.02,8.448-.031,5.632-.02,11.264-.041,16.896-.061,5.549-.02,11.098-.04,16.648-.061,5.231-.019,10.559,.256,15.778-.118,4.68-.335,9.068-2.328,9.886-7.424,.428-2.665,.428-5.422,.551-8.114,.127-2.794,.229-5.59,.306-8.386,.305-11.02,.221-22.05-.25-33.064-.239-5.589-.577-11.174-1.016-16.751-.198-2.513-.112-5.38-1.003-7.766-.84-2.251-2.53-3.792-4.736-4.67-1.88-.749-3.966-.927-5.974-.976-2.666-.066-5.337-.048-8.003-.022-5.526,.054-11.05,.251-16.566,.591-2.799,.172-5.596,.383-8.389,.627-1.345,.117-2.5,1.065-2.5,2.5,0,1.262,1.147,2.618,2.5,2.5,10.354-.902,20.748-1.317,31.141-1.219,1.795,.017,3.628-.035,5.373,.449,1.591,.442,2.411,1.244,2.701,2.904,.402,2.301,.434,4.723,.607,7.052,.195,2.625,.368,5.252,.52,7.881,.59,10.267,.843,20.553,.759,30.836-.042,5.183-.17,10.365-.384,15.543-.107,2.6-.215,5.203-.388,7.8-.107,1.607-.334,3.173-1.88,3.959-1.408,.715-3.119,.781-4.672,.812-2.549,.051-5.102,.024-7.652,.033-5.135,.019-10.27,.037-15.405,.056-10.436,.038-20.872,.076-31.307,.114-2.65,.01-5.301,.031-7.951,.029-1.316-.001-3.493,.188-4.275-1.151-.903-1.545-.473-4.095-.479-5.788-.008-2.648-.017-5.297-.025-7.945-.033-10.428-.066-20.857-.098-31.285-.016-5.131-.032-10.263-.048-15.394-.008-2.648-.017-5.297-.025-7.945-.006-1.95-.28-4.14,.267-6.039,.45-1.559,2.013-1.708,3.439-1.794,2.566-.155,5.143-.208,7.714-.237,5.137-.058,10.276,.084,15.402,.423,2.523,.167,5.041,.385,7.556,.645,1.345,.139,2.5-1.248,2.5-2.5,0-1.467-1.151-2.361-2.5-2.5h0Z"/>
  <path d="M29.947,75.327c3.847-9.249,7.757-18.472,11.733-27.666,1.982-4.584,3.979-9.161,5.993-13.731,.99-2.248,1.984-4.493,2.982-6.738,.509-1.146,.982-2.319,1.539-3.442,.139-.28,.448-.641,.526-.935,.222-.247,.295-.323,.218-.226-.511,.072-.542,.108-.091,.11l-2.411-1.835c6.197,18.154,12.395,36.307,18.592,54.461,.436,1.277,1.717,2.119,3.075,1.746,1.244-.342,2.184-1.792,1.746-3.075-6.197-18.154-12.395-36.307-18.592-54.461-.38-1.113-1.251-1.755-2.411-1.835-4.153-.288-5.596,4.911-6.909,7.867-1.728,3.891-3.444,7.786-5.149,11.687-3.377,7.727-6.709,15.473-9.996,23.238-1.903,4.496-3.793,8.998-5.668,13.506-.519,1.247,.56,2.749,1.746,3.075,1.439,.395,2.555-.494,3.075-1.746h0Z"/>
  <path d="M37.239,54.914c8.611-.802,17.276-.638,25.851,.489,1.341,.176,2.5-1.275,2.5-2.5,0-1.497-1.155-2.323-2.5-2.5-8.575-1.128-17.239-1.292-25.851-.489-1.344,.125-2.5,1.059-2.5,2.5,0,1.255,1.148,2.626,2.5,2.5h0Z"/>
</svg>