<?xml version="1.0" encoding="UTF-8"?>
<svg id="_レイヤー_1" data-name="レイヤー 1" xmlns="http://www.w3.org/2000/svg" viewBox="0 0 100 100">
  <path d="M56.217,16.248c10.849,10.447,21.698,20.895,32.547,31.342v-3.536c-5.314,5.685-10.607,11.391-15.944,17.055-4.082,4.331-9.814,10.038-16.422,8.435-3.257-.79-5.845-3.123-9.27-3.473-3.04-.311-5.947,1.109-7.98,3.316-2.043,2.218-3.377,5-4.29,7.849-.817,2.549-1.435,5.211-2.768,7.556-1.307,2.299-3.319,3.757-6.03,3.768-3.151,.012-6.008-1.657-8.368-3.615-1.269-1.052-2.506-2.173-3.644-3.366-.895-.938-1.906-2.09-2.067-3.431-.175-1.461,.662-2.943,1.278-4.21,.65-1.336,1.317-2.689,2.184-3.9,.665-.929,1.476-1.77,2.496-2.304,1.402-.733,3.07-.787,4.612-.938,3.171-.311,6.275-.953,8.551-3.372,3.818-4.058,4.077-10.512,1.666-15.339-.762-1.524-1.839-2.866-2.7-4.332-.681-1.159-1.289-2.417-.883-3.778,.5-1.677,1.9-3.06,3.004-4.359,1.32-1.555,2.655-3.097,4.004-4.626,2.802-3.177,5.665-6.299,8.589-9.364,1.407-1.476,2.829-2.939,4.263-4.388,.773-.78,1.549-1.557,2.33-2.33,.334-.331,.67-.662,1.006-.991,.224-.22,.448-.439,.673-.658,.303-.329,.364-.364,.185-.105h-1.329c.801,.115,2.007,1.645,2.633,2.21,1.033,.933,2.067,1.866,3.1,2.8,2.383,2.152,5.93-1.373,3.536-3.536-1.58-1.427-3.161-2.854-4.741-4.282-1.76-1.589-3.792-2.965-6.075-1.319-1.606,1.157-2.96,2.774-4.353,4.175-1.493,1.502-2.972,3.018-4.436,4.549-2.819,2.948-5.583,5.949-8.29,9-1.406,1.584-2.796,3.182-4.17,4.794-1.243,1.458-2.574,2.904-3.584,4.538-2.149,3.479-1.641,7.156,.422,10.524,1.539,2.512,3.263,4.67,3.377,7.584,.092,2.353-.516,4.827-2.401,6.307-2.302,1.808-6.245,1.204-9.071,1.956-3.58,.953-6.053,3.662-7.803,6.803-1.806,3.242-3.927,7.152-2.702,10.944,1.126,3.485,4.226,6.165,6.973,8.415,3.032,2.484,6.363,4.402,10.314,4.857,3.65,.42,7.431-.813,9.911-3.575,2.226-2.478,3.375-5.648,4.348-8.78,.86-2.768,1.631-5.686,3.563-7.941,.79-.921,1.736-1.735,2.908-2.037,1.358-.35,2.799,.175,4.065,.789,1.657,.804,3.269,1.733,5.04,2.272s3.71,.685,5.554,.47c4.018-.468,7.544-2.231,10.7-4.705,3.084-2.418,5.688-5.38,8.355-8.233,2.956-3.163,5.912-6.325,8.869-9.488,1.45-1.551,2.9-3.103,4.351-4.654,.909-.972,1.001-2.572,0-3.536-10.849-10.447-21.698-20.895-32.547-31.342-2.318-2.233-5.859,1.298-3.536,3.536h0Z"/>
  <path d="M39.591,25.387c3.209,3.196,6.84,5.897,10.321,8.779,3.277,2.714,6.281,5.699,9.15,8.838,5.746,6.287,11.112,12.877,17.91,18.087,1.073,.822,2.799,.166,3.42-.897,.753-1.288,.178-2.596-.897-3.42-6.532-5.006-11.653-11.595-17.186-17.619-2.832-3.084-5.805-6.002-9.037-8.668-3.428-2.828-6.992-5.493-10.147-8.635-2.283-2.273-5.82,1.261-3.536,3.536h0Z"/>
  <path d="M24.388,80.067c3.217,0,3.223-5,0-5s-3.223,5,0,5h0Z"/>
  <path d="M81.9,68.211l-2.336,7.814c-.782,2.615-1.517,5.636,.249,8.043,.969,1.32,2.282,2.12,3.932,2.25,1.392,.11,2.838-.509,3.956-1.293,1.194-.837,2.424-1.767,2.924-3.191,.556-1.582-.218-3.085-.945-4.448-.562-1.054-.935-2.124-1.204-3.554-.024-.128-.046-.256-.066-.384-.075-.462,.043,.578-.028-.237-.026-.302-.049-.604-.06-.907-.026-.737,.011-1.471,.092-2.204,.145-1.304-1.253-2.556-2.5-2.5-1.478,.066-2.345,1.103-2.5,2.5-.3,2.709,.104,5.52,1.137,8.04,.28,.683,.584,1.348,.935,1.997,.043,.08,.455,.903,.296,.533,.07,.268,.085,.313,.047,.136-.063-.242-.018-.481,.136-.718,.197-.233,.198-.246,.004-.04-.1,.093-.202,.183-.307,.271-.127,.108-.255,.214-.384,.318,.173-.13,.139-.106-.102,.071-.211,.142-.429,.269-.641,.409-.272,.131-.295,.153-.07,.068-.149,.058-.301,.107-.456,.145,.28-.015,.269-.016-.031-.002,.274,.064,.26,.06-.04-.012l.218,.103c-.238-.147-.237-.128,.003,.059-.103-.087-.2-.182-.29-.283,.176,.241,.185,.244,.028,.008-.129-.253-.136-.242-.021,.035-.05-.131-.094-.263-.13-.398l-.049-.203c.032,.349,.033,.339,.003-.03-.008-.189-.007-.378,.004-.567,.027-.316,.031-.377,.013-.182,.099-.659,.311-1.307,.5-1.945,.829-2.792,1.669-5.582,2.503-8.373,.375-1.253-.449-2.78-1.746-3.075-1.345-.306-2.674,.405-3.075,1.746h0Z"/>
</svg>