<?xml version="1.0" encoding="UTF-8"?>
<svg id="_レイヤー_1" data-name="レイヤー 1" xmlns="http://www.w3.org/2000/svg" viewBox="0 0 100 100">
  <path d="M24.989,27.261l1.951,42.608c.047,1.02,.737,2.211,1.835,2.411,14.703,2.672,29.729,2.578,44.396-.297,1.13-.221,1.756-1.367,1.835-2.411,.936-12.36,1.371-24.757,1.284-37.152-.01-1.487-.025-2.975-.054-4.462-.031-1.601-.259-3.242-1.714-4.196-1.193-.782-2.575-.664-3.933-.621-1.566,.049-3.132,.098-4.698,.147-6.264,.196-12.529,.391-18.793,.587-6.924,.216-13.848,.432-20.771,.649-3.21,.1-3.224,5.101,0,5,11.54-.36,23.079-.721,34.619-1.081,2.967-.093,5.935-.185,8.902-.278,.578-.018,1.426,.112,1.978-.062l.383-.004-.994-.974c-.037,.025,.019,.744,.021,.834,.03,1.487,.043,2.975,.054,4.462,.041,5.784-.031,11.569-.215,17.351-.21,6.608-.57,13.21-1.069,19.802l1.835-2.411c-13.732,2.692-27.968,2.799-41.737,.297l1.835,2.411-1.951-42.608c-.147-3.204-5.148-3.222-5,0h0Z"/>
  <path d="M7.941,43.907l-2.447,2.127c-.365,.317-.753,.62-1.096,.961-.91,.906-1.076,2.216-.589,3.369,.408,.966,1.043,1.867,1.645,2.723,.672,.954,1.395,1.877,2.16,2.758,.861,.99,2.666,.948,3.536,0,.969-1.055,.918-2.479,0-3.536-.297-.342-.585-.69-.868-1.044-.328-.409,.252,.338,.068,.089-.075-.101-.151-.201-.226-.302-.134-.182-.266-.366-.396-.551-.531-.759-1.042-1.544-1.476-2.363l.252,.597c-.045-.087-.073-.179-.083-.277l.089,.665,.014-.14-.341,1.262c.106-.223,.035-.14-.212,.247,.067-.06,.134-.12,.202-.178,.163-.142,.326-.284,.489-.425l.917-.798,1.896-1.649c.99-.861,.948-2.666,0-3.536-1.055-.969-2.479-.918-3.536,0h0Z"/>
  <path d="M8.168,51.796c4.304,.142,8.609,.285,12.913,.427,1.308,.043,2.559-1.181,2.5-2.5-.062-1.392-1.098-2.454-2.5-2.5-4.304-.142-8.609-.285-12.913-.427-1.308-.043-2.559,1.181-2.5,2.5,.062,1.392,1.098,2.454,2.5,2.5h0Z"/>
  <path d="M82.206,51.146c3.477-.181,6.955-.361,10.432-.542,1.304-.068,2.563-1.101,2.5-2.5-.058-1.296-1.101-2.573-2.5-2.5-3.477,.181-6.955,.361-10.432,.542-1.304,.068-2.563,1.101-2.5,2.5,.058,1.296,1.101,2.573,2.5,2.5h0Z"/>
  <path d="M88.904,46.117l1.718,1.817,.83,.877c.137,.145,.268,.303,.415,.439,.17,.189,.118,.115-.154-.22-.137-.425-.181-.513-.134-.262l-.089-.665-.013,.141,.089-.665c.03-.09,.235-.504,.057-.212,.071-.116,.302-.386,.091-.123-.159,.198-.316,.399-.473,.599-.298,.377-.596,.754-.894,1.131-.596,.754-1.192,1.509-1.789,2.263-.428,.541-.732,1.048-.732,1.768,0,.613,.272,1.346,.732,1.768,.476,.437,1.102,.762,1.768,.732,.617-.028,1.366-.224,1.768-.732,.649-.821,1.298-1.642,1.947-2.463,.316-.399,.631-.799,.947-1.198,.508-.642,1.127-1.26,1.356-2.069,.252-.89,.148-1.867-.385-2.637-.366-.528-.827-.979-1.266-1.444l-2.252-2.381c-.9-.952-2.64-.976-3.536,0-.937,1.021-.961,2.52,0,3.536h0Z"/>
  <path d="M46.646,15.8c.164,1.739,.327,3.479,.491,5.218,.064,.677,.236,1.272,.732,1.768,.434,.434,1.145,.76,1.768,.732,.647-.029,1.317-.241,1.768-.732,.424-.462,.794-1.117,.732-1.768-.164-1.739-.327-3.479-.491-5.218-.064-.677-.236-1.272-.732-1.768-.434-.434-1.145-.76-1.768-.732-.647,.029-1.317,.241-1.768,.732-.424,.462-.794,1.117-.732,1.768h0Z"/>
  <path d="M48.838,15.574c.808-1.32,1.567-2.692,2.438-3.971l-.391,.506c.061-.078,.117-.139,.193-.202l-.506,.391,.078-.045-.597,.252,.087-.03-.665,.089c.063-.014,.126-.014,.19,0l-.665-.089,.09,.028-.597-.252c.061,.026,.118,.059,.17,.1l-.506-.391c.356,.295,.632,.701,.926,1.056,.332,.4,.664,.8,.996,1.2,.664,.8,1.328,1.6,1.992,2.399,.387,.466,1.186,.732,1.768,.732,.613,0,1.346-.272,1.768-.732,.437-.476,.762-1.102,.732-1.768-.031-.697-.288-1.232-.732-1.768-.724-.872-1.448-1.745-2.173-2.617-.792-.954-1.54-2.158-2.716-2.654-1.139-.481-2.449-.211-3.31,.69-.464,.485-.788,1.124-1.137,1.693l-1.751,2.859c-.684,1.117-.28,2.799,.897,3.42,1.219,.644,2.691,.295,3.42-.897h0Z"/>
  <path d="M47.7,81.166c-.186,2.799-.176,5.606,.029,8.403,.049,.67,.246,1.281,.732,1.768,.434,.434,1.145,.76,1.768,.732,1.272-.057,2.603-1.103,2.5-2.5-.205-2.798-.215-5.604-.029-8.403,.087-1.308-1.212-2.558-2.5-2.5-1.429,.064-2.407,1.099-2.5,2.5h0Z"/>
  <path d="M44.894,91.25c.65,.685,1.382,1.365,2.215,1.819,1.137,.619,2.534,.915,3.794,.49,1.121-.378,2.04-1.076,2.955-1.804,.665-.529,1.269-1.127,1.813-1.778,.435-.52,.732-1.067,.732-1.768,0-.613-.272-1.346-.732-1.768-.476-.437-1.102-.762-1.768-.732-.628,.028-1.348,.23-1.768,.732-.585,.7-1.24,1.332-1.96,1.893l.506-.391c-.481,.367-.986,.734-1.54,.983l.597-.252c-.183,.073-.363,.124-.558,.155l.665-.089c-.184,.018-.36,.017-.543-.004l.665,.089c-.218-.036-.423-.096-.629-.178l.597,.252c-.318-.141-.608-.322-.886-.529l.506,.391c-.406-.316-.773-.672-1.126-1.045-.902-.951-2.639-.977-3.536,0-.936,1.02-.962,2.521,0,3.536h0Z"/>
</svg>