<?xml version="1.0" encoding="UTF-8"?>
<svg id="_レイヤー_1" data-name="レイヤー 1" xmlns="http://www.w3.org/2000/svg" viewBox="0 0 100 100">
  <path d="M54.426,73.72c-7.728,.331-15.457,.661-23.185,.992-1.973,.084-3.946,.17-5.92,.253-1.243,.052-2.984,.362-4.035-.486-1.013-.818-1.552-2.453-2.067-3.593-.68-1.507-1.237-3.073-1.726-4.652-1.999-6.462-2.576-13.221-2.577-19.956,0-3.462,.151-6.922,.362-10.377,.103-1.682,.221-3.364,.343-5.045,.015-.209,.117-.733,.056-.934l.04-.177c.132-.428-.056-.3-.565,.384,.03,.086,2.598-.114,2.859-.123,15.603-.567,31.206-1.134,46.809-1.701,3.772-.137,7.543-.306,11.316-.41,2.331-.064,5.434-.198,6.428,2.402,.57,1.492,.758,3.175,1.026,4.739,.313,1.826,.579,3.658,.787,5.498,.423,3.728,.656,7.477,.698,11.228,.048,4.23-.146,8.463-.583,12.671-.194,1.864-.346,3.791-.772,5.618-.099,.422-.167,.88-.537,1.141-.626,.441-1.782,.439-2.517,.546-8.729,1.267-17.461,2.515-26.191,3.773-1.338,.193-2.072,1.891-1.746,3.075,.395,1.436,1.734,1.939,3.075,1.746,8.483-1.222,16.967-2.444,25.45-3.666,1.936-.279,3.913-.5,5.425-1.881,1.275-1.165,1.792-2.805,2.054-4.462,.658-4.16,1.069-8.368,1.249-12.575,.354-8.28-.242-16.59-1.695-24.748-.641-3.599-1.529-7.362-5.178-9.034-3.291-1.507-7.062-1.068-10.57-.941-17.097,.621-34.194,1.242-51.291,1.864-2.074,.075-4.183,.046-6.248,.243-2.08,.198-3.683,1.347-4.143,3.462-.402,1.847-.355,3.884-.48,5.768-.126,1.91-.237,3.82-.319,5.733-.323,7.574-.168,15.229,1.383,22.676,.764,3.668,1.923,7.225,3.461,10.641,.733,1.628,1.528,3.361,2.849,4.605,1.492,1.405,3.433,1.929,5.438,1.998,4.052,.139,8.195-.307,12.245-.48,4.193-.179,8.386-.359,12.579-.538l6.413-.274c3.205-.137,3.223-5.138,0-5h0Z"/>
  <path d="M39.168,46.835c.277,4.398,.136,8.87-.526,13.203-.282,1.845,1.072,3.587,3.075,3.075,6.119-1.564,12.022-3.998,17.47-7.192,1.48-.868,1.775-3.534,0-4.317-5.664-2.498-11.329-4.997-16.993-7.495-1.234-.544-2.685-.361-3.42,.897-.622,1.063-.345,2.873,.897,3.42,5.664,2.498,11.329,4.997,16.993,7.495v-4.317c-5.141,3.013-10.496,5.21-16.276,6.687l3.075,3.075c.736-4.819,1.011-9.665,.704-14.532-.085-1.348-1.088-2.5-2.5-2.5-1.288,0-2.585,1.145-2.5,2.5h0Z"/>
</svg>